<?xml version="1.0" encoding="UTF-8"?>
<!DOCTYPE svg PUBLIC "-//W3C//DTD SVG 1.1//EN" "http://www.w3.org/Graphics/SVG/1.1/DTD/svg11.dtd">
<!-- Creator: Corel DESIGNER X6 -->
<svg xmlns="http://www.w3.org/2000/svg" xml:space="preserve" width="12.5922mm" height="4.7603mm" version="1.1" style="shape-rendering:geometricPrecision; text-rendering:geometricPrecision; image-rendering:optimizeQuality; fill-rule:evenodd; clip-rule:evenodd"
viewBox="0 0 123 47"
 xmlns:xlink="http://www.w3.org/1999/xlink">
 <defs>
  <style type="text/css">
   <![CDATA[
    .str0 {stroke:#E31E24;stroke-width:1.27134;stroke-linecap:round;stroke-linejoin:round}
    .fil0 {fill:none}
    .fil1 {fill:#E31E24}
   ]]>
  </style>
 </defs>
 <g id="Layer_x0020_1">
  <metadata id="CorelCorpID_0Corel-Layer"/>
  <path class="fil0 str0" d="M52 1c-9,11 -30,44 -16,44 10,0 30,-27 27,-27 -5,-1 -19,27 -10,27 8,0 29,-27 25,-27 -5,0 -19,26 -10,26 6,1 31,-26 25,-26 -2,0 -6,5 -4,10 3,11 26,-1 27,-6 0,-3 -2,-4 -4,-4 -16,0 -33,50 11,14"/>
  <path class="fil1" d="M0 0l43 0c-14,24 -29,47 -11,47l-32 0 0 -47z"/>
  <rect class="fil1" transform="matrix(0.130078 -0 -0.099802 0.130078 66.3013 8.13689)" width="29.7561" height="47.8688"/>
 </g>
</svg>
